<?xml version="1.0" standalone="no"?><!DOCTYPE svg PUBLIC "-//W3C//DTD SVG 1.1//EN" "http://www.w3.org/Graphics/SVG/1.1/DTD/svg11.dtd"><svg t="1700209180633" class="icon" viewBox="0 0 1024 1024" version="1.1" xmlns="http://www.w3.org/2000/svg" p-id="2400" xmlns:xlink="http://www.w3.org/1999/xlink" width="200" height="200"><path d="M165.751467 1024A166.0928 166.0928 0 0 1 0 857.634133V166.365867A166.161067 166.161067 0 0 1 165.751467 0h692.4288A166.5024 166.5024 0 0 1 1024 166.365867v691.268266A166.0928 166.0928 0 0 1 858.180267 1024z m700.074666-151.688533l-23.415466-77.4144a236.544 236.544 0 0 0 109.226666-179.2c0-124.245333-124.245333-225.28-263.645866-225.28a246.3744 246.3744 0 0 0-264.738134 225.28 245.76 245.76 0 0 0 264.260267 225.28 397.994667 397.994667 0 0 0 93.115733-15.837867zM73.796267 422.365867A255.044267 255.044267 0 0 0 197.973333 632.149333l-31.061333 93.115734 108.3392-54.613334a543.266133 543.266133 0 0 0 109.226667 15.837867 222.958933 222.958933 0 0 0 28.672-1.774933 236.7488 236.7488 0 0 1-9.352534-64.989867 254.3616 254.3616 0 0 1 264.192-245.418667 251.835733 251.835733 0 0 1 29.9008 1.706667A310.340267 310.340267 0 0 0 384.341333 158.173867c-170.530133 0-310.545067 116.599467-310.545066 264.192z m667.8528 124.791466a33.5872 33.5872 0 0 1 34.133333-34.133333 34.133333 34.133333 0 1 1-34.133333 34.133333z m-169.301334 0a34.133333 34.133333 0 1 1 34.133334 34.133334 34.133333 34.133333 0 0 1-34.133334-34.133334z m-116.053333-223.232a43.349333 43.349333 0 1 1 43.349333 43.349334 43.2128 43.2128 0 0 1-43.281066-43.349334z m-220.296533 0a43.349333 43.349333 0 1 1 43.349333 43.349334 43.2128 43.2128 0 0 1-43.281067-43.349334z" fill="#1BDB47" p-id="2401"></path></svg>